<svg xmlns="http://www.w3.org/2000/svg" viewBox="0 0 64 64">
  <!-- הסמל של הלוגו (BrandMark): ריבוע ובתוכו רשת נקודות שדוהה מהמרכז.
       מעובה לגודל פאביקון - ב-16 פיקסל הקווים הדקים של ה-Logo נעלמים. -->
  <rect width="64" height="64" rx="12" fill="#fbf8f1"/>
  <rect x="1" y="1" width="62" height="62" rx="11" fill="none" stroke="#96661c" stroke-width="1.5" opacity=".5"/>
  <rect x="12" y="12" width="40" height="40" fill="none" stroke="#96661c" stroke-width="1.6" opacity=".8"/>
  <g fill="#96661c">
    <rect x="29.7" y="29.7" width="4.6" height="4.6" opacity=".95"/>
    <rect x="22.3" y="22.3" width="4.6" height="4.6" opacity=".8"/><rect x="29.7" y="22.3" width="4.6" height="4.6" opacity=".8"/><rect x="37.1" y="22.3" width="4.6" height="4.6" opacity=".8"/>
    <rect x="22.3" y="29.7" width="4.6" height="4.6" opacity=".8"/><rect x="37.1" y="29.7" width="4.6" height="4.6" opacity=".8"/>
    <rect x="22.3" y="37.1" width="4.6" height="4.6" opacity=".8"/><rect x="29.7" y="37.1" width="4.6" height="4.6" opacity=".8"/><rect x="37.1" y="37.1" width="4.6" height="4.6" opacity=".8"/>
    <rect x="14.9" y="14.9" width="4.6" height="4.6" opacity=".62"/><rect x="22.3" y="14.9" width="4.6" height="4.6" opacity=".62"/><rect x="29.7" y="14.9" width="4.6" height="4.6" opacity=".62"/><rect x="37.1" y="14.9" width="4.6" height="4.6" opacity=".62"/><rect x="44.5" y="14.9" width="4.6" height="4.6" opacity=".62"/>
    <rect x="14.9" y="22.3" width="4.6" height="4.6" opacity=".62"/><rect x="44.5" y="22.3" width="4.6" height="4.6" opacity=".62"/>
    <rect x="14.9" y="29.7" width="4.6" height="4.6" opacity=".62"/><rect x="44.5" y="29.7" width="4.6" height="4.6" opacity=".62"/>
    <rect x="14.9" y="37.1" width="4.6" height="4.6" opacity=".62"/><rect x="44.5" y="37.1" width="4.6" height="4.6" opacity=".62"/>
    <rect x="14.9" y="44.5" width="4.6" height="4.6" opacity=".62"/><rect x="22.3" y="44.5" width="4.6" height="4.6" opacity=".62"/><rect x="29.7" y="44.5" width="4.6" height="4.6" opacity=".62"/><rect x="37.1" y="44.5" width="4.6" height="4.6" opacity=".62"/><rect x="44.5" y="44.5" width="4.6" height="4.6" opacity=".62"/>
  </g>
</svg>
